PathFileType	4	(X/Y/Z)	/Users/niels/Desktop/University/Third Semester/Perception and Action/Exam/Gymnastics Motion Tracking/Code for Gym Tracking/Analyzed Data/Webcam_Backflip/id20_1_baseline_Sports2D/id20_1_baseline_Sports2D_px_person00.trc
DataRate	CameraRate	NumFrames	NumMarkers	Units	OrigDataRate	OrigDataStartFrame	OrigNumFrames
29.71698113207547	29.71698113207547	10	22	m	29.71698113207547	75	106
Frame#	Time	Hip			RHip			RKnee			RAnkle			RBigToe			RSmallToe			RHeel			LHip			LKnee			LAnkle			LBigToe			LSmallToe			LHeel			Neck			Head			Nose			RShoulder			RElbow			RWrist			LShoulder			LElbow			LWrist		
		X1	Y1	Z1	X2	Y2	Z2	X3	Y3	Z3	X4	Y4	Z4	X5	Y5	Z5	X6	Y6	Z6	X7	Y7	Z7	X8	Y8	Z8	X9	Y9	Z9	X10	Y10	Z10	X11	Y11	Z11	X12	Y12	Z12	X13	Y13	Z13	X14	Y14	Z14	X15	Y15	Z15	X16	Y16	Z16	X17	Y17	Z17	X18	Y18	Z18	X19	Y19	Z19	X20	Y20	Z20	X21	Y21	Z21	X22	Y22	Z22
75	2.5238095238095233	0.5663424663231607	-0.6067962073120596	0.0	0.515908994801528	-0.5949705356772693	0.0	1.4497229592954544	-0.7683747162139318	0.0	1.5458601060419215	-1.066795635815432	0.0	1.157537109375	-0.19354101562500006	0.0	1.1474882812499998	-0.213638671875	0.0			0.0	0.4999944212108394	-0.6754075596461991	0.0	0.7197171150821265	-1.025598457454336	0.0	0.7042131134125807	-1.063267572357786	0.0			0.0	1.4646240234375	-0.6392470703125	0.0			0.0	0.561475490655287	-0.07872636792692249	0.0	1.3463671874740042	-0.036087890602216705	0.0	1.3328457032896026	0.03427343742489977	0.0	0.45685517494801375	0.03125995239586319	0.0	0.18180149780773702	-0.08152928235845956	0.0	0.04014937998012315	-0.28287902221053246	0.0	0.7210947493725004	-0.10558490720950373	0.0	0.7458864936575377	-0.4169127320103998	0.0	1.1434852241109714	-0.884959311700103	0.0
76	2.557460317460317	0.5654759791977134	-0.6081735466669148	0.0	0.5141103823254752	-0.5975688814972537	0.0	1.4504269286241143	-0.7692406943149926	0.0	1.5501352934823502	-1.0653267296804287	0.0	1.157537109375	-0.19354101562500006	0.0	1.1474882812499998	-0.213638671875	0.0			0.0	0.5060864229663536	-0.6719731347257328	0.0	0.7192864691305361	-1.025242188674885	0.0	0.7032764357373968	-1.0613492013955557	0.0			0.0	1.4646240234375	-0.6392470703125	0.0			0.0	0.5598932577004371	-0.07726052903982154	0.0	1.3463671874630116	-0.036087890631498906	0.0	1.3328457031824013	0.034273437519973686	0.0	0.4523192672797959	0.03194673114894027	0.0	0.1803538557054955	-0.07888058280933231	0.0	0.04289790725164365	-0.2803284133791894	0.0	0.7188276810642351	-0.1050512627926166	0.0	0.7538389727274374	-0.41887604125212113	0.0	1.143489427440803	-0.8849648646606806	0.0
77	2.5911111111111107	0.5657328320601468	-0.6093221105943407	0.0	0.5137888335412263	-0.5999356623041222	0.0	1.4509111147674825	-0.7694618186697613	0.0	1.5551213232740084	-1.0635844325989163	0.0	1.157537109375	-0.19354101562500006	0.0	1.1474882812499998	-0.213638671875	0.0			0.0	0.5116084594202431	-0.6686641344171471	0.0	0.7164694649520965	-1.0252268589261868	0.0	0.702326495173583	-1.0588426419345252	0.0			0.0	1.4646240234375	-0.6392470703125	0.0			0.0	0.557380927535507	-0.07508446637261654	0.0	1.3463671874684542	-0.0360878906418331	0.0	1.3328457031226604	0.034273437553831027	0.0	0.4458565593809408	0.03225970628330801	0.0	0.176499997054207	-0.07675010409329197	0.0	0.04467773759563514	-0.28034726129764687	0.0	0.716907419680686	-0.10350134481529455	0.0	0.7620709949563104	-0.4201124069619163	0.0	1.1434809882964112	-0.8849591545153505	0.0
78	2.6247619047619044	0.5668843110915512	-0.610404692661521	0.0	0.5149618815487513	-0.602148886315925	0.0	1.45100385289594	-0.7667589766102012	0.0	1.5604653634349253	-1.0617286967272035	0.0	1.157537109375	-0.19354101562500006	0.0	1.1474882812499998	-0.213638671875	0.0			0.0	0.5159284221854131	-0.6664891505579903	0.0	0.7124212297626958	-1.0252527532450673	0.0	0.7017538509210508	-1.055936671354464	0.0			0.0	1.4646240234375	-0.6392470703125	0.0			0.0	0.5545281975930186	-0.0722092207006907	0.0	1.3463671874792125	-0.03608789064155714	0.0	1.3328457030986305	0.03427343755328264	0.0	0.43889252067987	0.032382844868356325	0.0	0.17076643343782566	-0.07524769197921694	0.0	0.04545817807911742	-0.2828305830620294	0.0	0.7156917760029095	-0.10088246492143514	0.0	0.7698776834935857	-0.4206304743532571	0.0	1.143447438957628	-0.8849298916187038	0.0
79	2.658412698412698	0.5683377952474714	-0.6120473122537482	0.0	0.517594464663369	-0.6044427324013157	0.0	1.4509370150325296	-0.7591964586088428	0.0	1.5658833818742781	-1.059870108035584	0.0	1.157537109375	-0.19354101562500006	0.0	1.1474882812499998	-0.213638671875	0.0			0.0	0.5184301706866	-0.6668061121527955	0.0	0.7090992653323261	-1.024907630149264	0.0	0.7021399513046416	-1.0530133754393092	0.0			0.0	1.4646240234375	-0.6392470703125	0.0			0.0	0.5522823424102763	-0.06888189440947295	0.0	1.3463671874892624	-0.03608789063697576	0.0	1.332845703095826	0.03427343753867949	0.0	0.43277454664769804	0.032175040578718304	0.0	0.16397619942273084	-0.07467735187798151	0.0	0.04523658728921575	-0.2877923694942888	0.0	0.7156642957383278	-0.09781467744436793	0.0	0.7769659774096305	-0.4203029407778966	0.0	1.143374989731289	-0.8848626997137994	0.0
80	2.692063492063492	0.5695284617397178	-0.6149288494475743	0.0	0.5216968611499274	-0.6070638789679169	0.0	1.4512048463871934	-0.745956713127959	0.0	1.5711264972235162	-1.0580923673212996	0.0	1.157537109375	-0.19354101562500006	0.0	1.1474882812499998	-0.213638671875	0.0			0.0	0.5188456591211152	-0.6709251191058867	0.0	0.7092267997846651	-1.0239202325773533	0.0	0.7040850486903028	-1.0505637447122818	0.0			0.0	1.4646240234375	-0.6392470703125	0.0			0.0	0.5514387236170606	-0.06535084471904576	0.0	1.3463671874963083	-0.03608789063185325	0.0	1.33284570310254	0.03427343752221474	0.0	0.4280431641660507	0.031255803190720896	0.0	0.15686952966698636	-0.07554680880418929	0.0	0.044130571501006764	-0.2953492409193482	0.0	0.7169049290226178	-0.09533605287134485	0.0	0.7831994716455235	-0.4189578686257818	0.0	1.1432556618576315	-0.8847475445880472	0.0
81	2.7257142857142855	0.5704995219278579	-0.6195024504477338	0.0	0.5274140721871641	-0.6103490598202532	0.0	1.4522955138857143	-0.7280356168060623	0.0	1.575931182883086	-1.056477645147823	0.0	1.157537109375	-0.19354101562500006	0.0	1.1474882812499998	-0.213638671875	0.0			0.0	0.5173944668037697	-0.6796837059333354	0.0	0.7162850736056356	-1.0223903733587307	0.0	0.7078522510598751	-1.049066745752745	0.0			0.0	1.4646240234375	-0.6392470703125	0.0			0.0	0.5521638239024469	-0.061899735533694725	0.0	1.3463671875002128	-0.036087890627889516	0.0	1.3328457031113718	0.03427343750942406	0.0	0.4245674897638044	0.02933108284535578	0.0	0.15015894250403888	-0.0784025229825166	0.0	0.04240599490452474	-0.305420536930065	0.0	0.7185520817743292	-0.0943234635001586	0.0	0.788456141811831	-0.416623067967644	0.0	1.1431007685439285	-0.8845914691577018	0.0
82	2.759365079365079	0.5717760637865884	-0.625757157343809	0.0	0.5345409439611075	-0.6146010108401126	0.0	1.4544996587361474	-0.7084482445522207	0.0	1.5800016091599456	-1.0551178130345218	0.0	1.157537109375	-0.19354101562500006	0.0	1.1474882812499998	-0.213638671875	0.0			0.0	0.5150679878449677	-0.6925463671844466	0.0	0.7345365816706771	-1.0207764899885805	0.0	0.7130144506981825	-1.0488271235669688	0.0			0.0	1.4646240234375	-0.6392470703125	0.0			0.0	0.5539067099486888	-0.058931100998221575	0.0	1.346367187501767	-0.03608789062547363	0.0	1.3328457031186947	0.03427343750160124	0.0	0.42217159129276766	0.02644268848738528	0.0	0.14443608174458153	-0.08343363699166553	0.0	0.04036185420501304	-0.3178601588381488	0.0	0.7192613266967295	-0.09504634936618254	0.0	0.7926137428414524	-0.41381798277258064	0.0	1.1429609625070898	-0.8844382816503464	0.0
83	2.7930158730158725	0.5736106453123231	-0.6329795289056082	0.0	0.5419818244673491	-0.6197257046785204	0.0	1.4578351808319938	-0.6912137177758009	0.0	1.5830721572611757	-1.0540960685611254	0.0	1.157537109375	-0.19354101562500006	0.0	1.1474882812499998	-0.213638671875	0.0			0.0	0.5133591133406032	-0.7070809780967816	0.0	0.7682738448938404	-1.0195200062500176	0.0	0.7186341919665219	-1.0498526517746376	0.0			0.0	1.4646240234375	-0.6392470703125	0.0			0.0	0.5556181012530415	-0.05675013587567228	0.0	1.3463671875019316	-0.036087890624348556	0.0	1.3328457031234189	0.034273437497939915	0.0	0.42086995615398926	0.02299673950195854	0.0	0.13980607650944857	-0.09011682023492003	0.0	0.03818182743703423	-0.33263265105650197	0.0	0.7181441637109204	-0.09701523073256951	0.0	0.7956202475376796	-0.4115194179638123	0.0	1.1429490869460706	-0.8843922186217993	0.0
84	2.826666666666666	0.575660882843699	-0.6400447027925407	0.0	0.5482416643309537	-0.6251807968061053	0.0	1.4620748102425458	-0.6792861787365887	0.0	1.5850415286923076	-1.0534428126678785	0.0	1.157537109375	-0.19354101562500006	0.0	1.1474882812499998	-0.213638671875	0.0			0.0	0.51318773773017	-0.7202469994898173	0.0	0.8197297265443543	-1.0187639355279823	0.0	0.7239352463530068	-1.051892109638975	0.0			0.0	1.4646240234375	-0.6392470703125	0.0			0.0	0.556169729844999	-0.05534697825606439	0.0	1.3463671875014782	-0.0360878906240599	0.0	1.3328457031257956	0.03427343749698437	0.0	0.4205898438391357	0.019545773721461095	0.0	0.1358375656275318	-0.09738562822110579	0.0	0.03590966339486017	-0.3495718046115573	0.0	0.715035273763188	-0.09932135725030065	0.0	0.7975780918205766	-0.410624744124139	0.0	1.1432548815714594	-0.8846357699499103	0.0
